<svg id="Layer_1" enable-background="new 0 0 512.416 512.416" height="512" viewBox="0 0 512.416 512.416" width="512" xmlns="http://www.w3.org/2000/svg"><g><path d="m317.575 257.312c-10.234 4.004-21.566 3.587-31.562-1.284l-179.062-86.083c-8.794-4.228-8.876-16.72-.139-21.063l176.372-87.684c11.039-5.419 23.702-5.419 34.743 0l-.18-21.946-17.935-8.805c-27.644-13.57-59.979-13.57-87.623 0l-161.074 79.072c-41.557 20.4-41.467 79.904.151 100.179l161.193 78.526c27.495 13.395 59.587 13.395 87.082 0l17.459-10.277z" fill="#cee1f2"/><path d="m257.015 512.236c-13.751 0-27.483-2.342-40.514-7.018l-92.643-33.242c-35.023-12.567-56.607-47.173-52.489-84.154l7.716-69.287c1.223-10.976 11.118-18.886 22.09-17.663 10.978 1.223 18.886 11.112 17.664 22.091l-7.716 69.287c-2.059 18.49 8.733 35.793 26.245 42.076l92.643 33.242c16.891 6.062 35.56 6.243 52.568.512l101.664-34.798c4.868-1.763 9.268-4.263 12.732-7.235 8.382-7.195 21.009-6.23 28.203 2.151 7.193 8.382 6.23 21.009-2.152 28.202-7.155 6.141-15.937 11.181-25.395 14.575-.093.033-102.188 34.979-102.188 34.979-12.435 4.191-25.44 6.282-38.428 6.282zm51.308-206.044 24.459-11.954c9.924-4.851 14.037-16.827 9.187-26.751-4.85-9.923-16.826-14.032-26.75-9.187l-24.437 11.943c-22.104 10.768-47.459 10.769-69.563-.001l-161.194-78.524c-12.518-6.098-20.003-18.095-20.025-32.092-.021-13.998 7.429-26.018 19.929-32.154l161.073-79.072c22.24-10.919 47.753-10.919 69.996 0l161.073 79.071c11.997 5.89 19.581 17.479 20.288 31.005.691 13.221-5.289 25.13-15.998 31.857-9.354 5.875-12.173 18.221-6.298 27.574s18.222 12.173 27.574 6.297c23.167-14.552 36.126-39.904 34.666-67.818-1.476-28.217-17.403-52.449-42.606-64.821l-161.072-79.071c-33.444-16.418-71.805-16.418-105.25 0l-161.073 79.071c-26.137 12.83-42.346 38.933-42.302 68.121s16.332 55.24 42.507 67.992l161.193 78.525c16.617 8.096 34.452 12.144 52.294 12.144 17.845-.001 35.697-4.052 52.329-12.155z" fill="#1428bf"/><path d="m379.389 196.83-93.327-46.033c-3.321-12.953-15.073-22.527-29.062-22.527-16.569 0-30 13.432-30 30s13.431 30 30 30c3.754 0 7.347-.689 10.659-1.949l94.036 46.382c13.758 6.786 22.305 20.532 22.305 35.873v92.693c0 11.046 8.954 20 20 20s20-8.954 20-20v-92.693c0-30.683-17.094-58.175-44.611-71.746z" fill="#ff5cf0"/></g></svg>