<svg id="Layer_1" enable-background="new 0 0 512 512" height="512" viewBox="0 0 512 512" width="512" xmlns="http://www.w3.org/2000/svg" xmlns:xlink="http://www.w3.org/1999/xlink"><linearGradient id="SVGID_1_" gradientUnits="userSpaceOnUse" x1="0" x2="512" y1="256" y2="256"><stop offset="0" stop-color="#9dd6fc"/><stop offset="1" stop-color="#d17ff7"/></linearGradient><path d="m161 118c0 11.046-8.954 20-20 20h-46c-26.536-1.056-26.516-38.953 0-40h46c11.046 0 20 8.954 20 20zm276 0c0-11.046-8.954-20-20-20h-46c-26.536 1.056-26.516 38.953 0 40h46c11.046 0 20-8.954 20-20zm-362 277c0 11.046 8.954 20 20 20h46c26.536-1.056 26.516-38.953 0-40h-46c-11.046 0-20 8.954-20 20zm342-20h-46c-26.536 1.056-26.516 38.953 0 40h46c26.536-1.056 26.516-38.953 0-40zm-141-159v-98c0-65.065 52.935-118 118-118 156.55 6.483 156.49 229.547 0 236h-98c-11.046 0-20-8.954-20-20zm40-20h78c43.01 0 78-34.99 78-78-4.285-103.483-151.735-103.442-156 0zm-80-78v98c0 11.046-8.954 20-20 20h-98c-65.065 0-118-52.935-118-118 6.483-156.55 229.547-156.49 236 0zm-40 0c0-43.01-34.99-78-78-78-103.483 4.285-103.442 151.735 0 156h78zm316 276c-6.5 156.581-229.558 156.461-236 0v-98c0-11.046 8.954-20 20-20h98c65.065 0 118 52.935 118 118zm-40 0c0-43.01-34.99-78-78-78h-78v78c4.296 103.503 151.742 103.423 156 0zm-236-98v98c0 65.065-52.935 118-118 118-156.55-6.483-156.49-229.547 0-236h98c11.046 0 20 8.954 20 20zm-40 20h-78c-43.01 0-78 34.99-78 78 4.285 103.483 151.735 103.442 156 0z" fill="url(#SVGID_1_)"/></svg>